<svg viewBox="0 0 97.282 120" xmlns="http://www.w3.org/2000/svg" xmlns:xlink="http://www.w3.org/1999/xlink" width="97.282013" height="120.000000" fill="none" customFrame="#000000">
	<g id="Сочетание 1">
		<path id="path81" d="M0 26.12L14.532 52.095L14.532 67.939L0.017 93.863L0 26.12Z" fill="rgb(91,87,162)" fill-rule="nonzero" />
		<path id="path82" d="M55.797 42.643L69.414 34.297L97.282 34.271L55.797 59.685L55.797 42.643L55.797 42.643Z" fill="rgb(217,7,81)" fill-rule="nonzero" />
		<path id="path83" d="M55.72 25.967L55.797 60.357L41.231 51.407L41.231 0L55.721 25.967L55.72 25.967Z" fill="rgb(250,183,24)" fill-rule="nonzero" />
		<path id="path84" d="M97.282 34.271L69.413 34.297L55.72 25.967L41.231 0L97.281 34.271L97.282 34.271Z" fill="rgb(237,111,38)" fill-rule="nonzero" />
		<path id="path85" d="M55.797 94.007L55.797 77.322L41.231 68.542L41.239 120L55.797 94.007Z" fill="rgb(99,178,47)" fill-rule="nonzero" />
		<path id="path86" d="M69.38 85.737L14.531 52.095L0 26.12L97.223 85.703L69.379 85.737L69.38 85.737Z" fill="rgb(20,135,201)" fill-rule="nonzero" />
		<path id="path87" d="M41.24 120L55.796 94.007L69.379 85.737L97.222 85.703L41.24 120Z" fill="rgb(1,127,54)" fill-rule="nonzero" />
		<path id="path88" d="M0.0169678 93.863L41.35 68.543L27.454 60.017L14.532 67.939L0.0169678 93.863Z" fill="rgb(152,73,149)" fill-rule="nonzero" />
	</g>
</svg>
