<svg viewBox="0 0 26 26.3307" xmlns="http://www.w3.org/2000/svg" xmlns:xlink="http://www.w3.org/1999/xlink" width="26.000000" height="26.330688" fill="none" customFrame="#000000">
	<g id="Сочетание 5">
		<path id="Форма 10" d="M0 0L26 0L26 13.2411C26 16.6365 24.1911 19.7669 21.25 21.471L13 26.3307L4.75871 21.471C1.81765 19.7796 0.012622 16.6365 0.012622 13.2411L0.012622 0L0 0Z" fill="rgb(255,221,45)" fill-rule="evenodd" />
		<path id="Форма 11" d="M7 6.96881L7 11.0836C7.56802 10.4525 8.59044 10.0233 9.7517 10.0233L11.0266 10.0233L11.0266 14.8073C11.0266 16.0821 10.6858 17.193 10.1683 17.8115L15.83 17.8115C15.3125 17.193 15 16.0821 15 14.8073L15 10.0233L16.24 10.0233C17.4139 10.0233 18.4446 10.4525 19 11.0836L19 6.96881L7 6.96881Z" fill="rgb(51,51,51)" fill-rule="evenodd" />
	</g>
</svg>
