<svg viewBox="0 0 509.998 414.988" xmlns="http://www.w3.org/2000/svg" xmlns:xlink="http://www.w3.org/1999/xlink" width="509.998016" height="414.987549" fill="none" customFrame="#000000">
	<g id="Сочетание 7">
		<path id="Форма 14" d="M505 0L430.83 0C429.505 0 428.233 0.526001 427.296 1.463L337.881 90.811L333.418 86.348C331.467 84.395 328.299 84.395 326.348 86.348L287.635 125.06C285.68 127.013 285.685 130.182 287.635 132.13L298.89 143.385L282.38 159.896L253.567 171.299C252.931 171.551 252.354 171.93 251.872 172.413L247.938 176.348L227.194 171.843L211.154 155.803L222.871 144.086C224.824 142.134 224.824 138.968 222.871 137.016L184.159 98.303C182.206 96.348 179.037 96.353 177.089 98.303L172.291 103.101L70.574 1.46301C69.636 0.526009 68.365 7.62939e-06 67.04 7.62939e-06L5 7.62939e-06C2.238 7.62939e-06 0 2.23801 0 5.00001L0 143.82C0 145.147 0.527 146.42 1.467 147.358L64.788 210.602L60.683 214.707C58.728 216.66 58.733 219.829 60.683 221.777L99.396 260.489C101.347 262.442 104.515 262.442 106.466 260.489L119.623 247.332L133.162 260.871L115.534 278.499C113.581 280.451 113.581 283.617 115.534 285.569L124.851 294.886L122.08 297.657C113.001 306.735 113.001 321.508 122.08 330.586C126.976 335.483 133.919 338.096 141.333 337.209C140.513 344.063 142.707 351.213 147.956 356.462C152.81 361.316 159.729 363.975 167.188 363.088C166.375 369.937 168.57 377.077 173.814 382.32C178.668 387.174 185.587 389.833 193.046 388.946C192.233 395.795 194.428 402.935 199.672 408.178C208.749 417.257 223.522 417.258 232.601 408.178L235.371 405.408L235.446 405.483C245.748 415.788 262.516 415.788 272.821 405.483C279.044 399.259 281.508 390.677 280.214 382.587C288.307 383.883 296.856 381.448 303.123 375.181C309.336 368.969 311.831 360.463 310.533 352.287C318.706 353.584 327.212 351.092 333.426 344.877C339.643 338.661 342.133 330.154 340.836 321.984C349.009 323.281 357.516 320.789 363.729 314.574C372.071 306.233 373.58 293.879 368.708 284.112L386.918 265.903C388.873 263.95 388.868 260.78 386.918 258.833L380.903 252.818L394.612 239.109L404.039 248.536C405.992 250.491 409.161 250.486 411.109 248.536L449.821 209.823C451.774 207.871 451.774 204.705 449.821 202.753L445.391 198.323L508.532 135.238C509.47 134.3 509.998 133.028 509.998 131.701L509.998 5.00095C510 2.23901 507.762 0 505 0ZM109.041 230.491L105.578 233.955C103.625 235.908 100.46 235.908 98.507 233.956C96.554 232.004 96.554 228.838 98.506 226.885L101.969 223.421C103.922 221.468 107.087 221.469 109.04 223.42C110.993 225.371 110.993 228.538 109.041 230.491ZM71.859 203.532L10 141.747L10 10L64.97 10L165.219 110.172L71.859 203.532ZM126.693 240.263L204.082 162.873L217.618 176.41L140.229 253.799L126.693 240.263ZM147.939 323.517C142.76 328.696 134.332 328.698 129.151 323.517C123.971 318.337 123.971 309.909 129.151 304.729L141.52 292.361C146.697 287.184 155.126 287.179 160.309 292.36C165.489 297.54 165.489 305.968 160.309 311.147L147.939 323.517ZM155.027 349.393C149.847 344.212 149.847 335.785 155.027 330.604L181.538 304.093C186.72 298.913 195.145 298.913 200.327 304.093C205.507 309.273 205.507 317.701 200.327 322.881L173.815 349.393C168.637 354.573 160.208 354.573 155.027 349.393ZM180.886 375.251C175.706 370.071 175.706 361.643 180.886 356.463L207.398 329.951C212.577 324.771 221.006 324.771 226.186 329.951C231.366 335.131 231.366 343.559 226.186 348.739C219.806 355.118 205.734 369.191 199.674 375.251C194.495 380.43 186.066 380.432 180.886 375.251ZM232.952 393.69C231.063 395.579 227.406 399.236 225.532 401.11C220.353 406.289 211.925 406.291 206.744 401.11C201.564 395.93 201.564 387.502 206.744 382.322L214.164 374.902C219.343 369.722 227.772 369.722 232.952 374.902C238.132 380.081 238.132 388.51 232.952 393.69ZM265.751 398.414C259.347 404.818 248.925 404.82 242.519 398.414L242.246 398.141C249.001 389.032 248.278 376.085 240.023 367.831C236.532 364.339 232.196 362.204 227.668 361.398L233.257 355.809C235.589 353.477 237.312 350.766 238.446 347.875L265.751 375.18C272.155 381.586 272.155 392.009 265.751 398.414ZM356.658 307.505C350.24 313.925 339.849 313.925 333.427 307.505L294.829 268.907C292.878 266.954 289.71 266.954 287.759 268.907C285.806 270.859 285.806 274.025 287.759 275.977L326.357 314.575C332.761 320.98 332.761 331.402 326.357 337.807C319.935 344.227 309.547 344.227 303.125 337.807L264.527 299.209C262.576 297.256 259.408 297.256 257.457 299.209C255.504 301.161 255.504 304.327 257.457 306.279L296.055 344.877C302.474 351.298 302.476 361.688 296.055 368.109C289.635 374.527 279.244 374.531 272.824 368.109C272.688 367.973 239.754 335.041 239.647 334.934C238.801 330.514 236.672 326.294 233.258 322.879C228.015 317.635 220.874 315.439 214.026 316.253C214.839 309.405 212.644 302.264 207.4 297.021C198.322 287.941 183.548 287.941 174.47 297.021L173.819 297.672C173.017 293.133 170.881 288.787 167.382 285.288C158.306 276.21 143.532 276.208 134.452 285.288L131.924 287.816L126.143 282.034L226.298 181.879L239.532 184.754L226.9 197.385C216.572 207.71 216.568 224.43 226.9 234.758C237.203 245.063 253.97 245.063 264.273 234.758L285.711 213.321C293.979 221.589 353.902 281.513 356.661 284.272C363.078 290.69 363.082 301.082 356.658 307.505ZM362.604 276.076L289.244 202.717C287.293 200.764 284.125 200.764 282.174 202.717L257.201 227.69C250.795 234.094 240.375 234.095 233.969 227.689C227.549 221.271 227.549 210.88 233.969 204.458L258.209 180.218L283.968 170.024C284.779 170.836 375.283 261.341 376.313 262.371L362.604 276.076ZM373.834 245.746L292.252 164.164L305.96 150.456L387.542 232.038L373.834 245.746ZM411.998 221.998C410.047 223.951 406.879 223.951 404.928 221.998L401.465 218.535C399.512 216.583 399.512 213.417 401.465 211.465C403.416 209.512 406.584 209.512 408.535 211.465L411.998 214.928C413.951 216.88 413.951 220.046 411.998 221.998ZM500 129.628L438.321 191.251L344.952 97.882L432.9 10L500 10L500 129.628Z" fill="rgb(204,243,134)" fill-rule="nonzero" />
		<g id="Сочетание 6">
			<path id="Форма 15" d="M208.141 80.2087C208.343 80.4123 208.504 80.6535 208.614 80.9189C208.723 81.1842 208.78 81.4685 208.781 81.7556L208.781 101.839C208.782 103.046 209.1 104.231 209.704 105.276C210.308 106.321 211.175 107.189 212.22 107.792C213.265 108.396 214.45 108.715 215.657 108.716L235.741 108.716C236.028 108.716 236.312 108.773 236.577 108.883C236.843 108.992 237.084 109.153 237.288 109.356L250.413 122.481C251.266 123.335 252.329 123.949 253.495 124.262C254.661 124.574 255.889 124.574 257.055 124.262C258.221 123.949 259.284 123.335 260.137 122.481L273.262 109.356C273.465 109.153 273.706 108.992 273.971 108.882C274.236 108.773 274.52 108.716 274.806 108.716L294.89 108.716C296.097 108.714 297.282 108.395 298.326 107.792C299.371 107.188 300.239 106.32 300.842 105.275C301.446 104.231 301.765 103.046 301.766 101.839L301.766 81.7556C301.767 81.4685 301.824 81.1842 301.933 80.9189C302.043 80.6535 302.204 80.4123 302.406 80.2087L315.531 67.0837C316.385 66.2305 316.998 65.1676 317.311 64.002C317.623 62.8364 317.623 61.6092 317.311 60.4436C316.998 59.278 316.385 58.2151 315.531 57.3619L302.406 44.2369C302.204 44.0333 302.043 43.792 301.933 43.5267C301.824 43.2614 301.767 42.9771 301.766 42.69L301.766 22.5923C301.765 21.3857 301.446 20.2007 300.842 19.156C300.239 18.1113 299.371 17.2436 298.326 16.6399C297.282 16.0361 296.097 15.7174 294.89 15.7158L274.82 15.7158C274.533 15.7153 274.249 15.6586 273.984 15.5488C273.718 15.4391 273.477 15.2784 273.273 15.0759L260.148 1.95092C259.282 1.12188 258.218 0.528226 257.057 0.226383C255.897 -0.0754606 254.678 -0.0754606 253.518 0.226383C252.357 0.528225 251.293 1.12188 250.427 1.95092L237.302 15.0759C237.098 15.2784 236.857 15.4391 236.591 15.5488C236.326 15.6586 236.042 15.7153 235.755 15.7158L215.657 15.7158C214.45 15.717 213.265 16.0354 212.22 16.6392C211.175 17.2429 210.308 18.1107 209.704 19.1555C209.1 20.2004 208.782 21.3856 208.781 22.5923L208.781 42.6759C208.78 42.963 208.723 43.2473 208.614 43.5126C208.504 43.778 208.343 44.0192 208.141 44.2228L195.016 57.3478C194.162 58.2009 193.547 59.264 193.235 60.43C192.922 61.596 192.922 62.8238 193.235 63.9898C193.547 65.1558 194.162 66.2189 195.016 67.072L208.141 80.2087ZM198.327 60.6689L211.452 47.5439C212.09 46.9041 212.595 46.1457 212.941 45.3115C213.287 44.4773 213.466 43.5836 213.468 42.6806L213.468 22.5923C213.468 22.2082 213.57 21.8309 213.762 21.4983C213.954 21.1657 214.23 20.8894 214.563 20.6972C214.896 20.5051 215.273 20.4037 215.657 20.4033L235.741 20.4033C236.643 20.4011 237.536 20.2224 238.37 19.8771C239.204 19.5317 239.962 19.0265 240.602 18.39L253.727 5.26498C254.002 5.00127 254.341 4.81245 254.71 4.71644C255.08 4.62044 255.467 4.62044 255.837 4.71644C256.206 4.81245 256.545 5.00127 256.82 5.26498L269.945 18.39C270.585 19.0271 271.344 19.5329 272.178 19.8786C273.012 20.2243 273.906 20.4034 274.809 20.4056L294.892 20.4056C295.276 20.406 295.654 20.5074 295.986 20.6996C296.319 20.8918 296.595 21.168 296.787 21.5006C296.98 21.8332 297.081 22.2105 297.081 22.5947L297.081 42.6783C297.084 43.5806 297.263 44.4738 297.608 45.3075C297.953 46.1412 298.458 46.8993 299.095 47.5392L312.22 60.6642C312.491 60.9359 312.686 61.2741 312.785 61.645C312.885 62.0158 312.885 62.4063 312.785 62.7772C312.686 63.148 312.491 63.4863 312.22 63.7579L299.095 76.8829C298.458 77.5228 297.953 78.2809 297.608 79.1146C297.263 79.9483 297.084 80.8415 297.081 81.7439L297.081 101.827C297.081 102.212 296.98 102.589 296.787 102.922C296.595 103.254 296.319 103.53 295.986 103.723C295.654 103.915 295.276 104.016 294.892 104.017L274.82 104.017C273.918 104.019 273.025 104.197 272.191 104.543C271.357 104.888 270.599 105.393 269.959 106.03L256.834 119.155C256.559 119.419 256.22 119.607 255.851 119.703C255.481 119.799 255.094 119.799 254.724 119.703C254.355 119.607 254.016 119.419 253.741 119.155L240.616 106.03C239.976 105.393 239.217 104.887 238.383 104.541C237.549 104.195 236.655 104.016 235.752 104.014L215.657 104.014C215.273 104.014 214.896 103.912 214.563 103.72C214.23 103.528 213.954 103.252 213.762 102.919C213.57 102.587 213.468 102.209 213.468 101.825L213.468 81.7556C213.466 80.8532 213.287 79.9599 212.942 79.1262C212.597 78.2924 212.091 77.5343 211.455 76.8947L198.33 63.7697C198.058 63.4984 197.862 63.1602 197.762 62.7892C197.663 62.4182 197.663 62.0274 197.762 61.6564C197.862 61.2854 198.058 60.9472 198.33 60.6759L198.327 60.6689Z" fill="rgb(204,243,134)" fill-rule="nonzero" />
			<path id="Форма 16" d="M220.075 75.922C220.168 76.0143 220.241 76.1238 220.291 76.2444C220.342 76.3651 220.368 76.4944 220.368 76.6251L220.368 91.4423C220.367 92.4412 220.629 93.4228 221.128 94.2883C221.627 95.1537 222.345 95.8727 223.209 96.3729C224.074 96.873 225.055 97.1368 226.054 97.1376L240.869 97.1376C240.999 97.1379 241.129 97.164 241.249 97.2142C241.37 97.2645 241.48 97.338 241.572 97.4306L251.256 107.117C251.963 107.822 252.843 108.328 253.807 108.586C254.771 108.844 255.786 108.844 256.75 108.586C257.714 108.328 258.593 107.822 259.3 107.117L268.984 97.4306C269.077 97.3385 269.187 97.2654 269.307 97.2151C269.428 97.1649 269.557 97.1386 269.687 97.1376L284.507 97.1376C285.159 97.1382 285.807 97.0251 286.42 96.8033C287.034 96.5815 287.604 96.2545 288.105 95.8368C288.759 95.3061 289.286 94.6363 289.649 93.8761C290.012 93.116 290.201 92.2846 290.202 91.4423L290.202 76.6275C290.202 76.4967 290.228 76.3672 290.278 76.2465C290.329 76.1258 290.402 76.0163 290.495 75.9243L300.18 66.24C300.886 65.5341 301.394 64.6548 301.652 63.6903C301.911 62.7259 301.911 61.7103 301.652 60.7459C301.394 59.7814 300.886 58.902 300.18 58.1962L290.495 48.5118C290.402 48.4199 290.329 48.3104 290.278 48.1897C290.228 48.069 290.202 47.9395 290.202 47.8087L290.202 32.9892C290.203 31.9892 289.94 31.0067 289.441 30.1405C288.941 29.2744 288.222 28.5552 287.356 28.0555C286.49 27.5557 285.507 27.293 284.507 27.2939L269.692 27.2939C269.562 27.2929 269.432 27.2666 269.312 27.2164C269.191 27.1661 269.082 27.093 268.989 27.0009L259.305 17.3142C258.598 16.6098 257.718 16.1034 256.754 15.8456C255.79 15.5879 254.775 15.5879 253.811 15.8456C252.847 16.1034 251.968 16.6098 251.261 17.3142L241.452 27.1134C241.286 27.2346 241.086 27.301 240.88 27.3032L226.054 27.3032C225.055 27.3024 224.073 27.5646 223.208 28.0633C222.342 28.562 221.623 29.2798 221.123 30.1445C220.623 31.0092 220.359 31.9903 220.359 32.9892L220.359 47.804C220.35 47.9334 220.321 48.0604 220.271 48.1801C220.221 48.2997 220.152 48.4102 220.066 48.5072L210.379 58.1915C209.675 58.8986 209.169 59.7781 208.911 60.7421C208.654 61.706 208.654 62.7208 208.911 63.6847C209.169 64.6487 209.675 65.5282 210.379 66.2353L220.075 75.922ZM213.702 61.5126L223.389 51.8282C223.542 51.6702 223.684 51.5026 223.816 51.3267C224.21 50.83 224.519 50.2711 224.73 49.6729C224.941 49.0746 225.051 48.4454 225.055 47.8111L225.055 32.9892C225.055 32.8139 225.102 32.6417 225.189 32.49C225.277 32.3382 225.403 32.2121 225.555 32.1245C225.706 32.0369 225.879 31.9907 226.054 31.9907L240.869 31.9907C242.045 31.9892 243.192 31.6214 244.15 30.9384C244.413 30.7547 244.66 30.5493 244.888 30.3243L254.577 20.64C254.702 20.5179 254.855 20.4303 255.024 20.3857C255.192 20.3411 255.369 20.3411 255.537 20.3857C255.706 20.4303 255.859 20.5179 255.984 20.64L265.668 30.3267C266.197 30.8526 266.824 31.2701 267.514 31.5559C268.203 31.8417 268.941 31.9902 269.687 31.9931L284.507 31.9931C284.682 31.9931 284.854 32.0392 285.006 32.1269C285.158 32.2145 285.284 32.3405 285.372 32.4923C285.459 32.6441 285.505 32.8163 285.505 32.9915L285.505 47.8064C285.504 48.5533 285.65 49.2931 285.936 49.983C286.222 50.673 286.642 51.2994 287.172 51.8259L296.856 61.5126C296.979 61.6364 297.067 61.7902 297.112 61.9586C297.157 62.1271 297.157 62.3044 297.112 62.4729C297.067 62.6413 296.979 62.7951 296.856 62.9189L287.172 72.6032C286.642 73.1298 286.222 73.7561 285.936 74.4461C285.65 75.136 285.504 75.8759 285.505 76.6228L285.505 91.4423C285.503 91.5894 285.468 91.7341 285.403 91.8659C285.338 91.9977 285.244 92.1132 285.128 92.204C285.043 92.2785 284.945 92.3371 284.839 92.3771C284.733 92.4171 284.62 92.4379 284.507 92.4384L269.692 92.4384C268.946 92.4413 268.208 92.5898 267.518 92.8756C266.829 93.1614 266.202 93.5789 265.673 94.1048L255.984 103.792C255.859 103.914 255.706 104.001 255.537 104.046C255.369 104.09 255.192 104.09 255.024 104.046C254.855 104.001 254.702 103.914 254.577 103.792L244.893 94.1048C244.366 93.5751 243.74 93.1551 243.05 92.869C242.36 92.583 241.62 92.4366 240.873 92.4384L226.054 92.4384C225.879 92.4384 225.706 92.3923 225.555 92.3046C225.403 92.217 225.277 92.091 225.189 91.9392C225.102 91.7874 225.055 91.6152 225.055 91.44L225.055 76.6275C225.057 75.8806 224.911 75.1407 224.625 74.4508C224.339 73.7608 223.919 73.1345 223.389 72.6079L213.705 62.9189C213.582 62.7949 213.495 62.6412 213.45 62.473C213.405 62.3047 213.405 62.1277 213.449 61.9593C213.493 61.791 213.58 61.637 213.702 61.5126Z" fill="rgb(204,243,134)" fill-rule="nonzero" />
			<path id="Форма 17" d="M255.92 89.722C261.042 89.7235 266.036 88.1187 270.198 85.1337C274.361 82.1486 277.482 77.9334 279.123 73.0814C279.273 72.6403 279.287 72.1648 279.165 71.7155C279.043 71.2662 278.789 70.8634 278.437 70.5586C278.085 70.2539 277.65 70.0609 277.188 70.0043C276.726 69.9477 276.257 70.03 275.842 70.2408C274.59 70.8772 273.273 71.377 271.914 71.7314L271.914 52.883L272.437 52.883C272.848 52.883 273.252 52.7747 273.609 52.569C273.965 52.3633 274.261 52.0674 274.466 51.7111C274.672 51.3548 274.78 50.9507 274.78 50.5392C274.778 48.8858 274.401 47.2545 273.678 45.7676C272.955 44.2806 271.905 42.9766 270.606 41.9533C269.307 40.93 267.794 40.2139 266.179 39.8588L266.179 37.0463C266.179 36.5513 266.022 36.0691 265.731 35.6686C265.44 35.2682 265.03 34.9702 264.559 34.8172C264.089 34.6643 263.582 34.6643 263.111 34.8172C262.64 34.9702 262.23 35.2682 261.939 35.6686C261.648 36.0691 261.491 36.5513 261.491 37.0463L261.491 39.8588C259.876 40.2136 258.363 40.9295 257.064 41.9527C255.765 42.976 254.714 44.28 253.991 45.7671C253.268 47.2541 252.89 48.8856 252.888 50.5392C252.888 50.9506 252.996 51.3548 253.202 51.7111C253.407 52.0674 253.703 52.3633 254.059 52.569C254.416 52.7747 254.82 52.883 255.231 52.883L255.749 52.883L255.749 69.0713C253.707 67.7195 251.936 65.9977 250.527 63.9947C248.736 61.4273 247.574 58.4745 247.135 55.3749C246.695 52.2753 246.991 49.1158 247.998 46.1517C248.147 45.7108 248.161 45.2356 248.038 44.7867C247.916 44.3378 247.662 43.9356 247.311 43.6312C246.959 43.3268 246.524 43.134 246.062 43.0774C245.6 43.0208 245.132 43.103 244.717 43.3135C240.513 45.4311 237.01 48.7187 234.631 52.7807C232.252 56.8426 231.098 61.5056 231.307 66.2084C231.516 70.9111 233.08 75.4532 235.811 79.2877C238.079 82.514 241.09 85.1466 244.59 86.9628C248.091 88.7791 251.977 89.7255 255.92 89.722ZM263.826 44.2791C265.073 44.2804 266.291 44.6537 267.325 45.3514C268.359 46.0491 269.161 47.0394 269.629 48.1955L258.02 48.1955C258.489 47.0392 259.291 46.0488 260.325 45.3512C261.359 44.6535 262.578 44.2802 263.826 44.2791ZM267.217 52.883L267.217 72.4088C264.908 72.4528 262.609 72.0992 260.42 71.3634L260.42 52.883L267.217 52.883ZM242.324 50.626C241.903 55.7624 243.112 60.9008 245.78 65.3104C248.447 69.72 252.437 73.1762 257.182 75.1874C261.927 77.1985 267.186 77.6623 272.209 76.5127C270.082 79.5744 267.136 81.976 263.709 83.4433C260.281 84.9105 256.51 85.3842 252.826 84.8102C249.142 84.2362 245.694 82.6377 242.875 80.1973C240.057 77.7568 237.981 74.5728 236.886 71.0089C235.791 67.4451 235.72 63.645 236.681 60.0428C237.643 56.4406 239.598 53.1815 242.324 50.6377L242.324 50.626Z" fill="rgb(204,243,134)" fill-rule="nonzero" />
		</g>
	</g>
</svg>
